<svg 
     width="480" height="280px"
     xmlns="http://www.w3.org/2000/svg"
     xmlns:bx="http://www.w3.org/2000/svg">
  <defs>
    <path id="text-path-0"
          d="M 110.47399139404297 376.2447872161865 Q 113.58672881126404 344.8533020019531 116.69946622848511 376.2447872161865"/>
    <path id="path-0" d="M 77.2713555441131 457.74220818868446 L 99.82077281941159 418.01220449115146"
          style="fill: #d0d1d3"/>
    <path id="path-1"
          d="M 89.949 435.406 C 124.047 424.445 151.078 412.842 178.69 408.24 C 208.605 406.914 220.933 407.854 240.869 420.314 C 259.493 430.746 275.684 432.733 290.371 439.028 C 322.878 447.932 341.593 451.102 367.039 451.102 C 391.713 447.335 404.573 441.775 417.748 432.991 C 429.081 414.908 434.829 408.772 428.011 388.319 C 410.344 353.697 402.928 336.655 374.887 326.139 C 333.544 319.959 324.794 326.818 298.823 349.079 C 262.461 375.132 253.793 391.977 243.888 419.71 C 225.307 456.738 202.647 460.157 171.446 460.157 C 131.486 458.894 108.545 445.695 85.119 426.954 C 56.343 395.19 53.522 376.332 72.442 346.061 C 97.502 328.658 124.304 326.571 149.11 323.725 C 171.066 321.205 178.323 318.818 191.971 335.195 C 212.295 353.055 229.61 361.469 237.851 373.83 C 246.822 387.287 253.028 411.168 257.772 426.351 C 286.603 442.577 320.13 444.623 346.514 446.272 C 381.519 443.255 412.393 437.061 425.596 410.655 C 428.852 386.069 420.738 356.91 404.467 347.268 C 328.892 302.483 481.423 393.301 378.509 338.817 C 357.608 337.366 348.843 336.035 341.081 337.006 C 333.111 338.002 324.658 350.602 318.141 354.513 C 308.615 360.228 298.054 362.938 287.957 367.19 C 256.856 379.872 248.227 415.314 236.04 433.595 C 204.951 455.126 179.799 455.931 145.487 455.931 L 138.243 455.931 C 124.539 455.931 122.705 454.882 112.889 445.065"
          style="fill: fill: #d0d1d3"/>
    <path id="c"
          d="m-42.13-44.78c-0.91-4.32-4.3-20.06-5.87-27.34-0.47-2.21-2.11-3.82-3.99-3.82-5.36 0-15.39-0.06-16.6-0.06h-44.08c-0.61 0-2.56 0.07-4.11 1.8-4.7 5.26-12.54 20.51-13.76 22.05-0.08 0.1-6.27 2.28-9.09 3.96-1.12 0.67-1.74 2.13-1.9 3.62l-2.46 20.76c-0.64 4.09 1.7 5.81 5.37 5.81h91.51c2.8 0 5.11-0.79 5.11-5.8v-19.74c0-0.42-0.05-0.83-0.13-1.24z"/>
    <path id="d"
          d="m97.35-88.98c-0.91-4.32-4.3-20.06-5.86-27.34-0.47-2.21-2.11-3.74-3.99-3.74-5.36 0-15.39 0.01-16.6 0.01h-44.08c-0.61 0-2.56-0.01-4.11 1.72-4.71 5.27-12.55 20.48-13.76 22.02-0.08 0.1-6.27 2.26-9.09 3.94-1.12 0.67-1.74 2.12-1.9 3.61l-2.47 20.76c-0.64 4.09 1.7 5.8 5.37 5.8h91.51c2.8 0 5.1-0.79 5.1-5.8v-19.74c0-0.42-0.04-0.84-0.12-1.24z"/>
  </defs>
  <ellipse style="stroke: #d0d1d3; fill: rgba(186, 218, 85, 0); stroke-width: 1;" cx="66.995" cy="65.587" rx="12.5"
           ry="12.5"/>
  <g transform="matrix(1, 0, 0, 1, 4, 0)">
    <rect style="stroke: #d0d1d3; fill: rgba(216, 216, 216, 0); stroke-width: 1;" x="-171.84" y="36.968" width="65"
          height="56.745" rx="9" ry="9" transform="matrix(-1, 0, 0, 1, 0, 0)"/>
    <g transform="matrix(0.2331, 0, 0, 0.243797, 113.594866, 42.54958)" style="">
      <path d="m 11063.227,-979.64667 h 136.841 c 13.642,0 24.624,10.98209 24.624,24.62351 v 86.34805 c 0,13.64142 -10.982,24.6235 -24.624,24.6235 h -136.841 c -13.641,0 -24.623,-10.98208 -24.623,-24.6235 v -86.34805 c 0,-13.64142 10.982,-24.62351 24.623,-24.62351 z"
            color="#000" overflow="visible" fill="#d0d1d3" paint-order="fill markers stroke"
            transform="translate(-72.618376,24.502414) matrix(0.26458333,0,0,0.26458333,-2844.9648,236.71805)"/>
      <path d="m 11028.456,-846.10527 c -0.171,-14.1195 -2.084,-26.8793 -1.08,-40.5521 0.421,-24.6211 -1.947,-59.2243 2.811,-88.8358 2.048,-12.7845 20.13,-11.3405 96.455,-11.7119 83.874,-0.4078 92.182,0.3441 102.35,9.2718 5.791,5.084 7.997,9.2135 8.879,16.6154 -0.194,45.349 -0.119,75.2241 -3.393,112.6505 -0.868,22.1447 -57.142,14.8349 -88.027,15.0103 -100.705,0.5726 -119.535,6.7474 -117.995,-12.4482 z m 184.05,-12.008 c 8.726,-32.5957 2.758,-69.426 7.439,-98.5479 -0.484,-0.4844 -3.768,1.7959 -7.296,5.0657 -23.42,20.9267 -32.14,32.1516 -55.76,46.5775 -5.118,3.1348 -11.694,5.7449 -14.612,5.8008 -34.24,-7.65 -71.93,-47.8852 -94.749,-67.8586 1.039,26.23 -1.113,50.3433 -2.223,72.1348 -1.877,36.8757 -0.578,42.9934 14.175,42.0597 45.469,0.6597 149.922,6.3656 153.026,-5.232 z m -56.229,-66.4457 c 12.957,-8.2174 50.864,-44.4348 49.246,-47.0515 -0.631,-1.0207 -27.013,-1.8479 -58.627,-1.8401 -23.602,1.696 -47.818,-1.9894 -71.298,-0.4389 -5.394,0.3818 -6.615,-0.8726 25.515,26.2404 23.32,19.6774 37.589,29.9193 41.685,29.9193 1.491,0 7.556,-3.0737 13.479,-6.8292 z"
            fill="#d0d1d3"
            transform="translate(-72.618376,24.502414) matrix(0.26458333,0,0,0.26458333,-2844.9648,236.71805)"/>
    </g>
  </g>
  <g>
    <path style="fill: rgb(216, 216, 216); stroke:  #d0d1d3; stroke-miterlimit: 4.2; stroke-width: 3px; transform-origin: 395.55px 90.992px;"
          d="M 408.568 135.227 L 427.418 135.227"/>
    <path style="fill: rgb(216, 216, 216); stroke:  #d0d1d3; stroke-miterlimit: 4.2; stroke-width: 3; transform-origin: 461.921px 113.074px;"
          d="M 417.687 126.091 L 417.687 144.941"/>
  </g>
  <ellipse style="stroke:  #d0d1d3; fill: rgba(186, 218, 85, 0); stroke-width: 4px;" cx="332.979" cy="208.353"
           rx="12.5" ry="12.5"/>
  <text style="fill: #d0d1d3; font-family: &quot;Comic Sans MS&quot;; font-size: 28px; font-style: italic; font-weight: 700; white-space: pre;"
        transform="matrix(1.151515, 0, 0, 1, -43.717778, 1.772777)" x="233.625" y="72.594">P
  </text>
  
  <text style="fill: #d0d1d3; font-family: &quot;Comic Sans MS&quot;; font-size: 28px; font-style: italic; font-weight: 700; white-space: pre;"
        x="314.95" y="73.384">M
  </text>
  <text style="fill: #d0d1d3; font-family: &quot;Comic Sans MS&quot;; font-size: 28px; font-style: italic; font-weight: 700; white-space: pre;"
        x="61.942" y="219.906">N
  </text>
  <text style="fill: #d0d1d3; font-family: &quot;Comic Sans MS&quot;; font-size: 28px; font-style: italic; font-weight: 700; white-space: pre;"
        x="315.412" y="146.777">D
  </text>
  <text style="fill: #d0d1d3; font-family: &quot;Comic Sans MS&quot;; font-size: 28px; font-style: italic; font-weight: 700; white-space: pre;"
        x="130.523" y="147.714">T
  </text>
  <text style="fill: #d0d1d3; font-family: &quot;Comic Sans MS&quot;; font-size: 28px; font-style: italic; font-weight: 700; white-space: pre;"
        x="401.209" y="74.119">N
  </text>
  <text style="fill: #d0d1d3; font-family: &quot;Comic Sans MS&quot;; font-size: 28px; font-style: italic; font-weight: 700; white-space: pre;"
        x="151.26" y="218.737">E
  </text>
  <text style="fill: #d0d1d3; font-family: &quot;Comic Sans MS&quot;; font-size: 28px; font-style: italic; font-weight: 700; white-space: pre;"
        x="246.105" y="221.039">T
  </text>
  <text style="fill: #d0d1d3; font-family: &quot;Comic Sans MS&quot;; font-size: 28px; font-style: italic; font-weight: 700; white-space: pre;"
        x="217.938" y="149.148">O
  </text>
  <text style="fill: #d0d1d3; font-family: &quot;Comic Sans MS&quot;; font-size: 28px; font-style: italic; font-weight: 700; letter-spacing: 1.1px; text-transform: capitalize; white-space: pre;"
        x="134.925" y="75.158">B
  </text>
  
  <path style="fill: rgb(216, 216, 216); stroke:  #d0d1d3;" d="M -2.415 419.107 L -1.811 493.963"/>
  
  <g transform="matrix(1, 0, 0, 1, 98.695634, -273.729344)">
    <g transform="matrix(0.150908, 0, 0, 0.160555, 107.721689, 314.137761)" style="">
      <path d="m 6138.6535,-4275.3867 -69.393,8.9171 12.165,44.7569 -35.657,33.6883 -31.596,-20.6695 -26.0141,42.1386 38.3229,17.5871 -2.0322,34.0315 -46.4415,18.843 21.4439,45.1093 35.1498,-18.6142 20.3029,26.6082 -22.7145,35.5162 28.0449,33.4594 38.2516,-43.0759 31.6666,20.8074 8.4075,31.9176 56.4352,-1.3118 -13.4503,-42.0255 41.1125,-23.7533 27.7899,30.1482 38.1944,-50.9321 -28.2965,-19.1863 8.6285,-47.279 35.0566,-5.1573 2.2492,-51.1428 -44.0313,5.5954 -17.512,-33.6883 12.6902,-32.6612 -44.7674,-35.5916 -24.6435,36.0479 -43.3976,-5.0247 z m 15.2333,97.4671 c 30.3656,4e-4 49.2029,23.8766 49.2029,56.1999 0,32.3234 -25.9799,53.1514 -56.3455,53.1518 -30.3658,0 -52.4385,-21.411 -52.4385,-53.7346 0,-32.3236 29.2153,-55.6171 59.5811,-55.6171 z"
            fill="#d0d1d3"
            transform="translate(-71.616826,-92.742158) matrix(0.26458333,0,0,0.26458333,-1506.8443,1225.3966)"/>
      <path d="m 9345.4043,1144.7578 c -2.0641,0.095 -4.3452,0.4058 -6.8672,0.9434 -23.6812,5.0478 -31.4813,6.6019 -55.2578,13.459 -16.3868,6.1253 -8.4288,12.6146 -3.5664,29.7382 4.0083,14.4452 10.3384,20.1765 -5.7637,30.586 -13.8957,10.5989 -10.6946,9.3429 -25.5215,-1.7559 -12.1856,-8.7508 -16.1121,-14.5149 -22.2168,-11.5137 -3.9491,1.9416 -9.2679,7.4884 -15.455,15.5254 -10.1057,13.1269 -28.5703,48.5511 -14.9493,49.2286 2.6323,0.1311 10.8877,2.1536 18.3457,4.4941 13.0797,4.1045 13.5586,4.7216 13.5586,17.4453 0,12.8052 -0.3953,13.3008 -13.5586,16.9297 -18.3519,5.059 -34.2968,15.4109 -34.2968,22.2637 0,7.4555 16.7866,42.7005 23.5566,49.4707 4.9904,4.9901 6.5259,4.6351 23.5918,-5.4551 12.6981,-7.5082 16.0914,-16.1006 25.1016,-2.293 9.294,11.5389 6.5606,8.9036 -2.961,21.2988 -5.3933,7.0404 -10.8215,13.9994 -12.0625,15.4649 -7.6078,7.8793 -7.2775,11.5645 0.7168,19.6035 7.0837,7.1233 9.8037,5.858 15.8848,13.8535 10.2762,8.1854 12.266,12.8803 22.3711,13.8242 10.5886,1.0098 12.4796,-4.2764 17.3848,-12.1484 10.4936,-16.8265 14.6617,-20.5109 19.1015,-16.8262 2.2536,1.8704 8.1362,4.4794 13.0742,5.7969 7.6628,2.0449 14.6247,1.2992 11.002,16.5293 -1.7567,12.0327 -3.1998,19.1691 5.1113,20.0918 24.3819,2.7067 36.1197,6.4454 59.0684,-3.5918 17.6149,-7.9379 16.6017,-7.0159 8.7754,-27.8867 -4.7958,-14.0253 -12.3978,-23.4784 6.3144,-31.3008 16.3513,-7.5357 14.056,-5.0904 28.918,7.1797 9.0134,7.1246 18.1071,12.9531 20.209,12.9531 8.232,0 46.7098,-46.3797 46.6328,-56.2109 -0.018,-2.3204 -9.8995,-10.1421 -26.0195,-20.5957 -1.5975,-1.0359 -1.2038,-8.8354 0.9082,-17.9844 l 3.7285,-16.1543 15.3828,-1.4785 c 23.786,-2.2855 26.28,-5.8437 24.3047,-34.6621 -0.9194,-13.4148 -3.4038,-27.6275 -5.5215,-31.584 -3.5569,-6.646 -5.3438,-7.0417 -23.4609,-5.1875 -19.5394,1.9998 -19.6429,1.9668 -28.5918,-9.2539 -7.9976,-10.0277 -10.9649,-11.0507 -1.0176,-20.7266 12.5177,-14.8764 13.367,-21.4814 3.8906,-30.2636 -14.7697,-13.8647 -17.6726,-27.101 -48.5723,-30.2833 -11.8247,0 -13.0955,0.93 -19.6191,14.3575 -6.864,14.1276 -7.2264,14.3574 -22.6895,14.3574 -15.4686,0 -15.9485,3.6689 -17.8203,-12.4688 -2.7932,-16.5331 -6.6959,-26.4307 -21.1445,-25.7656 z m -3.3594,12.1934 c 4.2285,-0.2327 4.1964,2.3791 3.7149,13.9648 0,21.146 3.7271,23.8762 36.0429,26.418 24.4197,1.9208 26.5941,9.5271 34.9317,-14.043 3.7764,-8.9384 7.8285,-16.2519 9.0058,-16.2519 2.5853,0 34.8789,25.4655 34.8789,27.5039 0,0.7899 -2.0036,4.6153 -4.4531,8.5019 -8.742,13.8718 -8.7186,19.9337 0.1328,32.8692 4.6982,6.8659 9.4384,16.7902 10.5332,22.0547 2.5532,12.2754 12.4069,13.7658 34.793,5.2597 22.5308,-8.561 15.9603,-7.8288 16.4238,16.1485 v 22.3886 l -13.8398,-2.0761 c -19.4743,-2.9203 -30.4359,1.8398 -30.3067,13.1582 0.056,4.9125 -2.1931,15.2142 -4.9961,22.8925 -7.4883,20.5124 -6.59,23.6436 9.2618,32.3028 17.2757,9.4723 16.5156,7.4498 2.4824,25.6425 -12.8369,17.1944 -8.9179,19.995 -24.2949,3.1075 -6.832,-7.039 -14.3698,-12.7989 -16.75,-12.7989 -7.0364,0 -37.2661,14.7583 -47.2246,23.0547 -8.8755,7.3943 -9.069,8.1398 -5.2286,20.2285 2.1929,6.9032 6.095,15.9074 8.6719,20.0079 8.7104,14.1637 -10.3432,10.5257 -21.3027,12.7382 l -21.9434,1.2403 0.5801,-19.6524 c 0.6358,-21.577 3.8525,-19.463 -17.8516,-25.9394 -12.1836,-4.1562 -11.4254,-4.4426 -22.8027,-7.1348 -9.8202,-4.2125 -18.3695,-1.9861 -30.6172,24.8848 -8.0574,18.6446 -4.9695,12.3362 -18.7539,-1.377 -14.5922,-15.6273 -16.6249,-11.7061 -0.3965,-27.2402 7.0574,-7.1912 12.8321,-14.7045 12.8321,-16.6973 0,-1.9925 -5.0242,-10.2078 -11.1661,-18.2539 -6.1418,-8.0461 -11.1679,-16.0514 -11.1679,-17.791 0,-6.0636 -16.1811,-3.103 -28.8477,5.2793 -7.0172,4.6436 -13.2387,7.8751 -13.8262,7.1797 -0.5876,-0.6955 -3.4353,-8.3549 -6.3281,-17.0215 -6.0849,-18.2301 -5.2874,-19.2587 17.2461,-22.248 20.7303,-2.7499 28.1307,-9.5922 30.6231,-28.3125 1.7607,-13.2253 1.0276,-16.3369 -5.4707,-23.254 -4.1263,-4.3922 -13.6604,-9.5382 -21.1875,-11.4335 -7.5271,-1.8952 -13.658,-4.351 -13.627,-5.459 0.1551,-5.3811 18.8422,-28.918 20.6445,-26.002 1.1354,1.837 7.5224,6.1242 14.1934,9.5274 20.6118,10.5156 15.1032,1.8436 34.8789,-12.961 12.5127,-10.5325 22.75,-21.2911 22.75,-23.9082 0,-2.6171 -2.8712,-10.388 -6.3809,-17.2676 -13.1502,-25.8957 2.6981,-18.8879 31.1075,-27.0644 6.427,-0.8628 10.498,-2.0264 13.0351,-2.166 z m 28.9537,86.1788 c -30.4625,-0.5338 -74.8328,22.5466 -71.5997,58.3225 4.4673,49.4336 28.2124,65.2968 60.3168,66.2159 24.1603,0.6916 81.5279,-21.1382 61.9251,-82.911 -8.878,-27.9767 -16.7395,-41.0334 -50.6422,-41.6274 z m -0.8924,13.7916 c 17.83,0.3269 28.6414,9.9221 34.8805,27.6072 4.2518,12.0521 13.6006,32.9941 -14.6164,54.4929 -9.4649,7.2114 -39.3025,24.9658 -63.0241,-3.4068 -30.8964,-36.9543 3.8733,-79.4061 42.76,-78.6933 z"
            transform="translate(-71.616826,-92.742158) matrix(0.26458333,0,0,0.26458333,-1506.8443,1225.3966) translate(-3214.0181,-5425.6289)"
            fill="#d0d1d3"/>
    </g>
    
    <rect style="stroke:  #d0d1d3; fill: rgba(216, 216, 216, 0); stroke-width: 1;" x="-167.69" y="309.227"
          width="65" height="56.745" rx="9" ry="9" transform="matrix(-1, 0, 0, 1, 0, 0)"/>
  </g>
  
  <rect x="345.824" y="156.843" width="30" height="30"
        style="stroke:  #d0d1d3; fill: none; transform-box: fill-box; transform-origin: 50% 50%;"
        transform="matrix(0.707107, 0.707107, -0.707107, 0.707107, 56.389195, -35.629794)"/>
  <g transform="matrix(1, 0, 0, 1, 190.932986, -274.313267)">
    <g transform="matrix(0.150908, 0, 0, 0.160555, 107.721689, 314.137761)" style="">
      <path d="m 6138.6535,-4275.3867 -69.393,8.9171 12.165,44.7569 -35.657,33.6883 -31.596,-20.6695 -26.0141,42.1386 38.3229,17.5871 -2.0322,34.0315 -46.4415,18.843 21.4439,45.1093 35.1498,-18.6142 20.3029,26.6082 -22.7145,35.5162 28.0449,33.4594 38.2516,-43.0759 31.6666,20.8074 8.4075,31.9176 56.4352,-1.3118 -13.4503,-42.0255 41.1125,-23.7533 27.7899,30.1482 38.1944,-50.9321 -28.2965,-19.1863 8.6285,-47.279 35.0566,-5.1573 2.2492,-51.1428 -44.0313,5.5954 -17.512,-33.6883 12.6902,-32.6612 -44.7674,-35.5916 -24.6435,36.0479 -43.3976,-5.0247 z m 15.2333,97.4671 c 30.3656,4e-4 49.2029,23.8766 49.2029,56.1999 0,32.3234 -25.9799,53.1514 -56.3455,53.1518 -30.3658,0 -52.4385,-21.411 -52.4385,-53.7346 0,-32.3236 29.2153,-55.6171 59.5811,-55.6171 z"
            fill="#d0d1d3"
            transform="translate(-71.616826,-92.742158) matrix(0.26458333,0,0,0.26458333,-1506.8443,1225.3966)"/>
      <path d="m 9345.4043,1144.7578 c -2.0641,0.095 -4.3452,0.4058 -6.8672,0.9434 -23.6812,5.0478 -31.4813,6.6019 -55.2578,13.459 -16.3868,6.1253 -8.4288,12.6146 -3.5664,29.7382 4.0083,14.4452 10.3384,20.1765 -5.7637,30.586 -13.8957,10.5989 -10.6946,9.3429 -25.5215,-1.7559 -12.1856,-8.7508 -16.1121,-14.5149 -22.2168,-11.5137 -3.9491,1.9416 -9.2679,7.4884 -15.455,15.5254 -10.1057,13.1269 -28.5703,48.5511 -14.9493,49.2286 2.6323,0.1311 10.8877,2.1536 18.3457,4.4941 13.0797,4.1045 13.5586,4.7216 13.5586,17.4453 0,12.8052 -0.3953,13.3008 -13.5586,16.9297 -18.3519,5.059 -34.2968,15.4109 -34.2968,22.2637 0,7.4555 16.7866,42.7005 23.5566,49.4707 4.9904,4.9901 6.5259,4.6351 23.5918,-5.4551 12.6981,-7.5082 16.0914,-16.1006 25.1016,-2.293 9.294,11.5389 6.5606,8.9036 -2.961,21.2988 -5.3933,7.0404 -10.8215,13.9994 -12.0625,15.4649 -7.6078,7.8793 -7.2775,11.5645 0.7168,19.6035 7.0837,7.1233 9.8037,5.858 15.8848,13.8535 10.2762,8.1854 12.266,12.8803 22.3711,13.8242 10.5886,1.0098 12.4796,-4.2764 17.3848,-12.1484 10.4936,-16.8265 14.6617,-20.5109 19.1015,-16.8262 2.2536,1.8704 8.1362,4.4794 13.0742,5.7969 7.6628,2.0449 14.6247,1.2992 11.002,16.5293 -1.7567,12.0327 -3.1998,19.1691 5.1113,20.0918 24.3819,2.7067 36.1197,6.4454 59.0684,-3.5918 17.6149,-7.9379 16.6017,-7.0159 8.7754,-27.8867 -4.7958,-14.0253 -12.3978,-23.4784 6.3144,-31.3008 16.3513,-7.5357 14.056,-5.0904 28.918,7.1797 9.0134,7.1246 18.1071,12.9531 20.209,12.9531 8.232,0 46.7098,-46.3797 46.6328,-56.2109 -0.018,-2.3204 -9.8995,-10.1421 -26.0195,-20.5957 -1.5975,-1.0359 -1.2038,-8.8354 0.9082,-17.9844 l 3.7285,-16.1543 15.3828,-1.4785 c 23.786,-2.2855 26.28,-5.8437 24.3047,-34.6621 -0.9194,-13.4148 -3.4038,-27.6275 -5.5215,-31.584 -3.5569,-6.646 -5.3438,-7.0417 -23.4609,-5.1875 -19.5394,1.9998 -19.6429,1.9668 -28.5918,-9.2539 -7.9976,-10.0277 -10.9649,-11.0507 -1.0176,-20.7266 12.5177,-14.8764 13.367,-21.4814 3.8906,-30.2636 -14.7697,-13.8647 -17.6726,-27.101 -48.5723,-30.2833 -11.8247,0 -13.0955,0.93 -19.6191,14.3575 -6.864,14.1276 -7.2264,14.3574 -22.6895,14.3574 -15.4686,0 -15.9485,3.6689 -17.8203,-12.4688 -2.7932,-16.5331 -6.6959,-26.4307 -21.1445,-25.7656 z m -3.3594,12.1934 c 4.2285,-0.2327 4.1964,2.3791 3.7149,13.9648 0,21.146 3.7271,23.8762 36.0429,26.418 24.4197,1.9208 26.5941,9.5271 34.9317,-14.043 3.7764,-8.9384 7.8285,-16.2519 9.0058,-16.2519 2.5853,0 34.8789,25.4655 34.8789,27.5039 0,0.7899 -2.0036,4.6153 -4.4531,8.5019 -8.742,13.8718 -8.7186,19.9337 0.1328,32.8692 4.6982,6.8659 9.4384,16.7902 10.5332,22.0547 2.5532,12.2754 12.4069,13.7658 34.793,5.2597 22.5308,-8.561 15.9603,-7.8288 16.4238,16.1485 v 22.3886 l -13.8398,-2.0761 c -19.4743,-2.9203 -30.4359,1.8398 -30.3067,13.1582 0.056,4.9125 -2.1931,15.2142 -4.9961,22.8925 -7.4883,20.5124 -6.59,23.6436 9.2618,32.3028 17.2757,9.4723 16.5156,7.4498 2.4824,25.6425 -12.8369,17.1944 -8.9179,19.995 -24.2949,3.1075 -6.832,-7.039 -14.3698,-12.7989 -16.75,-12.7989 -7.0364,0 -37.2661,14.7583 -47.2246,23.0547 -8.8755,7.3943 -9.069,8.1398 -5.2286,20.2285 2.1929,6.9032 6.095,15.9074 8.6719,20.0079 8.7104,14.1637 -10.3432,10.5257 -21.3027,12.7382 l -21.9434,1.2403 0.5801,-19.6524 c 0.6358,-21.577 3.8525,-19.463 -17.8516,-25.9394 -12.1836,-4.1562 -11.4254,-4.4426 -22.8027,-7.1348 -9.8202,-4.2125 -18.3695,-1.9861 -30.6172,24.8848 -8.0574,18.6446 -4.9695,12.3362 -18.7539,-1.377 -14.5922,-15.6273 -16.6249,-11.7061 -0.3965,-27.2402 7.0574,-7.1912 12.8321,-14.7045 12.8321,-16.6973 0,-1.9925 -5.0242,-10.2078 -11.1661,-18.2539 -6.1418,-8.0461 -11.1679,-16.0514 -11.1679,-17.791 0,-6.0636 -16.1811,-3.103 -28.8477,5.2793 -7.0172,4.6436 -13.2387,7.8751 -13.8262,7.1797 -0.5876,-0.6955 -3.4353,-8.3549 -6.3281,-17.0215 -6.0849,-18.2301 -5.2874,-19.2587 17.2461,-22.248 20.7303,-2.7499 28.1307,-9.5922 30.6231,-28.3125 1.7607,-13.2253 1.0276,-16.3369 -5.4707,-23.254 -4.1263,-4.3922 -13.6604,-9.5382 -21.1875,-11.4335 -7.5271,-1.8952 -13.658,-4.351 -13.627,-5.459 0.1551,-5.3811 18.8422,-28.918 20.6445,-26.002 1.1354,1.837 7.5224,6.1242 14.1934,9.5274 20.6118,10.5156 15.1032,1.8436 34.8789,-12.961 12.5127,-10.5325 22.75,-21.2911 22.75,-23.9082 0,-2.6171 -2.8712,-10.388 -6.3809,-17.2676 -13.1502,-25.8957 2.6981,-18.8879 31.1075,-27.0644 6.427,-0.8628 10.498,-2.0264 13.0351,-2.166 z m 28.9537,86.1788 c -30.4625,-0.5338 -74.8328,22.5466 -71.5997,58.3225 4.4673,49.4336 28.2124,65.2968 60.3168,66.2159 24.1603,0.6916 81.5279,-21.1382 61.9251,-82.911 -8.878,-27.9767 -16.7395,-41.0334 -50.6422,-41.6274 z m -0.8924,13.7916 c 17.83,0.3269 28.6414,9.9221 34.8805,27.6072 4.2518,12.0521 13.6006,32.9941 -14.6164,54.4929 -9.4649,7.2114 -39.3025,24.9658 -63.0241,-3.4068 -30.8964,-36.9543 3.8733,-79.4061 42.76,-78.6933 z"
            transform="translate(-71.616826,-92.742158) matrix(0.26458333,0,0,0.26458333,-1506.8443,1225.3966) translate(-3214.0181,-5425.6289)"
            fill="#d0d1d3"/>
    </g>
    <rect style="stroke: #d0d1d3; fill: rgba(216, 216, 216, 0); stroke-width: 1;" x="-167.69" y="309.227"
          width="65" height="56.745" rx="9" ry="9" transform="matrix(-1, 0, 0, 1, 0, 0)"/>
  </g>
  <g transform="matrix(1, 0, 0, 1, 280.402714, -273.313267)">
    <g transform="matrix(0.150908, 0, 0, 0.160555, 107.721689, 314.137761)" style="">
      <path d="m 6138.6535,-4275.3867 -69.393,8.9171 12.165,44.7569 -35.657,33.6883 -31.596,-20.6695 -26.0141,42.1386 38.3229,17.5871 -2.0322,34.0315 -46.4415,18.843 21.4439,45.1093 35.1498,-18.6142 20.3029,26.6082 -22.7145,35.5162 28.0449,33.4594 38.2516,-43.0759 31.6666,20.8074 8.4075,31.9176 56.4352,-1.3118 -13.4503,-42.0255 41.1125,-23.7533 27.7899,30.1482 38.1944,-50.9321 -28.2965,-19.1863 8.6285,-47.279 35.0566,-5.1573 2.2492,-51.1428 -44.0313,5.5954 -17.512,-33.6883 12.6902,-32.6612 -44.7674,-35.5916 -24.6435,36.0479 -43.3976,-5.0247 z m 15.2333,97.4671 c 30.3656,4e-4 49.2029,23.8766 49.2029,56.1999 0,32.3234 -25.9799,53.1514 -56.3455,53.1518 -30.3658,0 -52.4385,-21.411 -52.4385,-53.7346 0,-32.3236 29.2153,-55.6171 59.5811,-55.6171 z"
            fill="#d0d1d3"
            transform="translate(-71.616826,-92.742158) matrix(0.26458333,0,0,0.26458333,-1506.8443,1225.3966)"/>
      <path d="m 9345.4043,1144.7578 c -2.0641,0.095 -4.3452,0.4058 -6.8672,0.9434 -23.6812,5.0478 -31.4813,6.6019 -55.2578,13.459 -16.3868,6.1253 -8.4288,12.6146 -3.5664,29.7382 4.0083,14.4452 10.3384,20.1765 -5.7637,30.586 -13.8957,10.5989 -10.6946,9.3429 -25.5215,-1.7559 -12.1856,-8.7508 -16.1121,-14.5149 -22.2168,-11.5137 -3.9491,1.9416 -9.2679,7.4884 -15.455,15.5254 -10.1057,13.1269 -28.5703,48.5511 -14.9493,49.2286 2.6323,0.1311 10.8877,2.1536 18.3457,4.4941 13.0797,4.1045 13.5586,4.7216 13.5586,17.4453 0,12.8052 -0.3953,13.3008 -13.5586,16.9297 -18.3519,5.059 -34.2968,15.4109 -34.2968,22.2637 0,7.4555 16.7866,42.7005 23.5566,49.4707 4.9904,4.9901 6.5259,4.6351 23.5918,-5.4551 12.6981,-7.5082 16.0914,-16.1006 25.1016,-2.293 9.294,11.5389 6.5606,8.9036 -2.961,21.2988 -5.3933,7.0404 -10.8215,13.9994 -12.0625,15.4649 -7.6078,7.8793 -7.2775,11.5645 0.7168,19.6035 7.0837,7.1233 9.8037,5.858 15.8848,13.8535 10.2762,8.1854 12.266,12.8803 22.3711,13.8242 10.5886,1.0098 12.4796,-4.2764 17.3848,-12.1484 10.4936,-16.8265 14.6617,-20.5109 19.1015,-16.8262 2.2536,1.8704 8.1362,4.4794 13.0742,5.7969 7.6628,2.0449 14.6247,1.2992 11.002,16.5293 -1.7567,12.0327 -3.1998,19.1691 5.1113,20.0918 24.3819,2.7067 36.1197,6.4454 59.0684,-3.5918 17.6149,-7.9379 16.6017,-7.0159 8.7754,-27.8867 -4.7958,-14.0253 -12.3978,-23.4784 6.3144,-31.3008 16.3513,-7.5357 14.056,-5.0904 28.918,7.1797 9.0134,7.1246 18.1071,12.9531 20.209,12.9531 8.232,0 46.7098,-46.3797 46.6328,-56.2109 -0.018,-2.3204 -9.8995,-10.1421 -26.0195,-20.5957 -1.5975,-1.0359 -1.2038,-8.8354 0.9082,-17.9844 l 3.7285,-16.1543 15.3828,-1.4785 c 23.786,-2.2855 26.28,-5.8437 24.3047,-34.6621 -0.9194,-13.4148 -3.4038,-27.6275 -5.5215,-31.584 -3.5569,-6.646 -5.3438,-7.0417 -23.4609,-5.1875 -19.5394,1.9998 -19.6429,1.9668 -28.5918,-9.2539 -7.9976,-10.0277 -10.9649,-11.0507 -1.0176,-20.7266 12.5177,-14.8764 13.367,-21.4814 3.8906,-30.2636 -14.7697,-13.8647 -17.6726,-27.101 -48.5723,-30.2833 -11.8247,0 -13.0955,0.93 -19.6191,14.3575 -6.864,14.1276 -7.2264,14.3574 -22.6895,14.3574 -15.4686,0 -15.9485,3.6689 -17.8203,-12.4688 -2.7932,-16.5331 -6.6959,-26.4307 -21.1445,-25.7656 z m -3.3594,12.1934 c 4.2285,-0.2327 4.1964,2.3791 3.7149,13.9648 0,21.146 3.7271,23.8762 36.0429,26.418 24.4197,1.9208 26.5941,9.5271 34.9317,-14.043 3.7764,-8.9384 7.8285,-16.2519 9.0058,-16.2519 2.5853,0 34.8789,25.4655 34.8789,27.5039 0,0.7899 -2.0036,4.6153 -4.4531,8.5019 -8.742,13.8718 -8.7186,19.9337 0.1328,32.8692 4.6982,6.8659 9.4384,16.7902 10.5332,22.0547 2.5532,12.2754 12.4069,13.7658 34.793,5.2597 22.5308,-8.561 15.9603,-7.8288 16.4238,16.1485 v 22.3886 l -13.8398,-2.0761 c -19.4743,-2.9203 -30.4359,1.8398 -30.3067,13.1582 0.056,4.9125 -2.1931,15.2142 -4.9961,22.8925 -7.4883,20.5124 -6.59,23.6436 9.2618,32.3028 17.2757,9.4723 16.5156,7.4498 2.4824,25.6425 -12.8369,17.1944 -8.9179,19.995 -24.2949,3.1075 -6.832,-7.039 -14.3698,-12.7989 -16.75,-12.7989 -7.0364,0 -37.2661,14.7583 -47.2246,23.0547 -8.8755,7.3943 -9.069,8.1398 -5.2286,20.2285 2.1929,6.9032 6.095,15.9074 8.6719,20.0079 8.7104,14.1637 -10.3432,10.5257 -21.3027,12.7382 l -21.9434,1.2403 0.5801,-19.6524 c 0.6358,-21.577 3.8525,-19.463 -17.8516,-25.9394 -12.1836,-4.1562 -11.4254,-4.4426 -22.8027,-7.1348 -9.8202,-4.2125 -18.3695,-1.9861 -30.6172,24.8848 -8.0574,18.6446 -4.9695,12.3362 -18.7539,-1.377 -14.5922,-15.6273 -16.6249,-11.7061 -0.3965,-27.2402 7.0574,-7.1912 12.8321,-14.7045 12.8321,-16.6973 0,-1.9925 -5.0242,-10.2078 -11.1661,-18.2539 -6.1418,-8.0461 -11.1679,-16.0514 -11.1679,-17.791 0,-6.0636 -16.1811,-3.103 -28.8477,5.2793 -7.0172,4.6436 -13.2387,7.8751 -13.8262,7.1797 -0.5876,-0.6955 -3.4353,-8.3549 -6.3281,-17.0215 -6.0849,-18.2301 -5.2874,-19.2587 17.2461,-22.248 20.7303,-2.7499 28.1307,-9.5922 30.6231,-28.3125 1.7607,-13.2253 1.0276,-16.3369 -5.4707,-23.254 -4.1263,-4.3922 -13.6604,-9.5382 -21.1875,-11.4335 -7.5271,-1.8952 -13.658,-4.351 -13.627,-5.459 0.1551,-5.3811 18.8422,-28.918 20.6445,-26.002 1.1354,1.837 7.5224,6.1242 14.1934,9.5274 20.6118,10.5156 15.1032,1.8436 34.8789,-12.961 12.5127,-10.5325 22.75,-21.2911 22.75,-23.9082 0,-2.6171 -2.8712,-10.388 -6.3809,-17.2676 -13.1502,-25.8957 2.6981,-18.8879 31.1075,-27.0644 6.427,-0.8628 10.498,-2.0264 13.0351,-2.166 z m 28.9537,86.1788 c -30.4625,-0.5338 -74.8328,22.5466 -71.5997,58.3225 4.4673,49.4336 28.2124,65.2968 60.3168,66.2159 24.1603,0.6916 81.5279,-21.1382 61.9251,-82.911 -8.878,-27.9767 -16.7395,-41.0334 -50.6422,-41.6274 z m -0.8924,13.7916 c 17.83,0.3269 28.6414,9.9221 34.8805,27.6072 4.2518,12.0521 13.6006,32.9941 -14.6164,54.4929 -9.4649,7.2114 -39.3025,24.9658 -63.0241,-3.4068 -30.8964,-36.9543 3.8733,-79.4061 42.76,-78.6933 z"
            transform="translate(-71.616826,-92.742158) matrix(0.26458333,0,0,0.26458333,-1506.8443,1225.3966) translate(-3214.0181,-5425.6289)"
            fill="#d0d1d3"/>
    </g>
    <rect style="stroke: #d0d1d3; fill: rgba(216, 216, 216, 0); stroke-width: 1;" x="-167.69" y="309.227"
          width="65" height="56.745" rx="9" ry="9" transform="matrix(-1, 0, 0, 1, 0, 0)"/>
  </g>
  <rect style="stroke: #d0d1d3; fill: rgba(216, 216, 216, 0); stroke-width: 1;" x="-360.21" y="110.44" width="65"
        height="56.745" rx="9" ry="9" transform="matrix(-1, 0, 0, 1, 0, 0)"/>
  
  <g transform="matrix(1, 0, 0, 1, 94.106088, 72.547845)">
    <rect style="stroke: #d0d1d3; fill: rgba(216, 216, 216, 0); stroke-width: 1;" x="-171.84" y="36.968" width="65"
          height="56.745" rx="9" ry="9" transform="matrix(-1, 0, 0, 1, 0, 0)"/>
    <g transform="matrix(0.2331, 0, 0, 0.243797, 113.594866, 42.54958)" style="">
      <path d="m 11063.227,-979.64667 h 136.841 c 13.642,0 24.624,10.98209 24.624,24.62351 v 86.34805 c 0,13.64142 -10.982,24.6235 -24.624,24.6235 h -136.841 c -13.641,0 -24.623,-10.98208 -24.623,-24.6235 v -86.34805 c 0,-13.64142 10.982,-24.62351 24.623,-24.62351 z"
            color="#000" overflow="visible" fill="#d0d1d3" paint-order="fill markers stroke"
            transform="translate(-72.618376,24.502414) matrix(0.26458333,0,0,0.26458333,-2844.9648,236.71805)"/>
      <path d="m 11028.456,-846.10527 c -0.171,-14.1195 -2.084,-26.8793 -1.08,-40.5521 0.421,-24.6211 -1.947,-59.2243 2.811,-88.8358 2.048,-12.7845 20.13,-11.3405 96.455,-11.7119 83.874,-0.4078 92.182,0.3441 102.35,9.2718 5.791,5.084 7.997,9.2135 8.879,16.6154 -0.194,45.349 -0.119,75.2241 -3.393,112.6505 -0.868,22.1447 -57.142,14.8349 -88.027,15.0103 -100.705,0.5726 -119.535,6.7474 -117.995,-12.4482 z m 184.05,-12.008 c 8.726,-32.5957 2.758,-69.426 7.439,-98.5479 -0.484,-0.4844 -3.768,1.7959 -7.296,5.0657 -23.42,20.9267 -32.14,32.1516 -55.76,46.5775 -5.118,3.1348 -11.694,5.7449 -14.612,5.8008 -34.24,-7.65 -71.93,-47.8852 -94.749,-67.8586 1.039,26.23 -1.113,50.3433 -2.223,72.1348 -1.877,36.8757 -0.578,42.9934 14.175,42.0597 45.469,0.6597 149.922,6.3656 153.026,-5.232 z m -56.229,-66.4457 c 12.957,-8.2174 50.864,-44.4348 49.246,-47.0515 -0.631,-1.0207 -27.013,-1.8479 -58.627,-1.8401 -23.602,1.696 -47.818,-1.9894 -71.298,-0.4389 -5.394,0.3818 -6.615,-0.8726 25.515,26.2404 23.32,19.6774 37.589,29.9193 41.685,29.9193 1.491,0 7.556,-3.0737 13.479,-6.8292 z"
            fill="#d0d1d3"
            transform="translate(-72.618376,24.502414) matrix(0.26458333,0,0,0.26458333,-2844.9648,236.71805)"/>
    </g>
  </g>
  
  <g transform="matrix(1, 0, 0, 1, 7.91867, -199.956454)">
    <g transform="matrix(0.150908, 0, 0, 0.160555, 107.721689, 314.137761)" style="">
      <path d="m 6138.6535,-4275.3867 -69.393,8.9171 12.165,44.7569 -35.657,33.6883 -31.596,-20.6695 -26.0141,42.1386 38.3229,17.5871 -2.0322,34.0315 -46.4415,18.843 21.4439,45.1093 35.1498,-18.6142 20.3029,26.6082 -22.7145,35.5162 28.0449,33.4594 38.2516,-43.0759 31.6666,20.8074 8.4075,31.9176 56.4352,-1.3118 -13.4503,-42.0255 41.1125,-23.7533 27.7899,30.1482 38.1944,-50.9321 -28.2965,-19.1863 8.6285,-47.279 35.0566,-5.1573 2.2492,-51.1428 -44.0313,5.5954 -17.512,-33.6883 12.6902,-32.6612 -44.7674,-35.5916 -24.6435,36.0479 -43.3976,-5.0247 z m 15.2333,97.4671 c 30.3656,4e-4 49.2029,23.8766 49.2029,56.1999 0,32.3234 -25.9799,53.1514 -56.3455,53.1518 -30.3658,0 -52.4385,-21.411 -52.4385,-53.7346 0,-32.3236 29.2153,-55.6171 59.5811,-55.6171 z"
            fill="#d0d1d3"
            transform="translate(-71.616826,-92.742158) matrix(0.26458333,0,0,0.26458333,-1506.8443,1225.3966)"/>
      <path d="m 9345.4043,1144.7578 c -2.0641,0.095 -4.3452,0.4058 -6.8672,0.9434 -23.6812,5.0478 -31.4813,6.6019 -55.2578,13.459 -16.3868,6.1253 -8.4288,12.6146 -3.5664,29.7382 4.0083,14.4452 10.3384,20.1765 -5.7637,30.586 -13.8957,10.5989 -10.6946,9.3429 -25.5215,-1.7559 -12.1856,-8.7508 -16.1121,-14.5149 -22.2168,-11.5137 -3.9491,1.9416 -9.2679,7.4884 -15.455,15.5254 -10.1057,13.1269 -28.5703,48.5511 -14.9493,49.2286 2.6323,0.1311 10.8877,2.1536 18.3457,4.4941 13.0797,4.1045 13.5586,4.7216 13.5586,17.4453 0,12.8052 -0.3953,13.3008 -13.5586,16.9297 -18.3519,5.059 -34.2968,15.4109 -34.2968,22.2637 0,7.4555 16.7866,42.7005 23.5566,49.4707 4.9904,4.9901 6.5259,4.6351 23.5918,-5.4551 12.6981,-7.5082 16.0914,-16.1006 25.1016,-2.293 9.294,11.5389 6.5606,8.9036 -2.961,21.2988 -5.3933,7.0404 -10.8215,13.9994 -12.0625,15.4649 -7.6078,7.8793 -7.2775,11.5645 0.7168,19.6035 7.0837,7.1233 9.8037,5.858 15.8848,13.8535 10.2762,8.1854 12.266,12.8803 22.3711,13.8242 10.5886,1.0098 12.4796,-4.2764 17.3848,-12.1484 10.4936,-16.8265 14.6617,-20.5109 19.1015,-16.8262 2.2536,1.8704 8.1362,4.4794 13.0742,5.7969 7.6628,2.0449 14.6247,1.2992 11.002,16.5293 -1.7567,12.0327 -3.1998,19.1691 5.1113,20.0918 24.3819,2.7067 36.1197,6.4454 59.0684,-3.5918 17.6149,-7.9379 16.6017,-7.0159 8.7754,-27.8867 -4.7958,-14.0253 -12.3978,-23.4784 6.3144,-31.3008 16.3513,-7.5357 14.056,-5.0904 28.918,7.1797 9.0134,7.1246 18.1071,12.9531 20.209,12.9531 8.232,0 46.7098,-46.3797 46.6328,-56.2109 -0.018,-2.3204 -9.8995,-10.1421 -26.0195,-20.5957 -1.5975,-1.0359 -1.2038,-8.8354 0.9082,-17.9844 l 3.7285,-16.1543 15.3828,-1.4785 c 23.786,-2.2855 26.28,-5.8437 24.3047,-34.6621 -0.9194,-13.4148 -3.4038,-27.6275 -5.5215,-31.584 -3.5569,-6.646 -5.3438,-7.0417 -23.4609,-5.1875 -19.5394,1.9998 -19.6429,1.9668 -28.5918,-9.2539 -7.9976,-10.0277 -10.9649,-11.0507 -1.0176,-20.7266 12.5177,-14.8764 13.367,-21.4814 3.8906,-30.2636 -14.7697,-13.8647 -17.6726,-27.101 -48.5723,-30.2833 -11.8247,0 -13.0955,0.93 -19.6191,14.3575 -6.864,14.1276 -7.2264,14.3574 -22.6895,14.3574 -15.4686,0 -15.9485,3.6689 -17.8203,-12.4688 -2.7932,-16.5331 -6.6959,-26.4307 -21.1445,-25.7656 z m -3.3594,12.1934 c 4.2285,-0.2327 4.1964,2.3791 3.7149,13.9648 0,21.146 3.7271,23.8762 36.0429,26.418 24.4197,1.9208 26.5941,9.5271 34.9317,-14.043 3.7764,-8.9384 7.8285,-16.2519 9.0058,-16.2519 2.5853,0 34.8789,25.4655 34.8789,27.5039 0,0.7899 -2.0036,4.6153 -4.4531,8.5019 -8.742,13.8718 -8.7186,19.9337 0.1328,32.8692 4.6982,6.8659 9.4384,16.7902 10.5332,22.0547 2.5532,12.2754 12.4069,13.7658 34.793,5.2597 22.5308,-8.561 15.9603,-7.8288 16.4238,16.1485 v 22.3886 l -13.8398,-2.0761 c -19.4743,-2.9203 -30.4359,1.8398 -30.3067,13.1582 0.056,4.9125 -2.1931,15.2142 -4.9961,22.8925 -7.4883,20.5124 -6.59,23.6436 9.2618,32.3028 17.2757,9.4723 16.5156,7.4498 2.4824,25.6425 -12.8369,17.1944 -8.9179,19.995 -24.2949,3.1075 -6.832,-7.039 -14.3698,-12.7989 -16.75,-12.7989 -7.0364,0 -37.2661,14.7583 -47.2246,23.0547 -8.8755,7.3943 -9.069,8.1398 -5.2286,20.2285 2.1929,6.9032 6.095,15.9074 8.6719,20.0079 8.7104,14.1637 -10.3432,10.5257 -21.3027,12.7382 l -21.9434,1.2403 0.5801,-19.6524 c 0.6358,-21.577 3.8525,-19.463 -17.8516,-25.9394 -12.1836,-4.1562 -11.4254,-4.4426 -22.8027,-7.1348 -9.8202,-4.2125 -18.3695,-1.9861 -30.6172,24.8848 -8.0574,18.6446 -4.9695,12.3362 -18.7539,-1.377 -14.5922,-15.6273 -16.6249,-11.7061 -0.3965,-27.2402 7.0574,-7.1912 12.8321,-14.7045 12.8321,-16.6973 0,-1.9925 -5.0242,-10.2078 -11.1661,-18.2539 -6.1418,-8.0461 -11.1679,-16.0514 -11.1679,-17.791 0,-6.0636 -16.1811,-3.103 -28.8477,5.2793 -7.0172,4.6436 -13.2387,7.8751 -13.8262,7.1797 -0.5876,-0.6955 -3.4353,-8.3549 -6.3281,-17.0215 -6.0849,-18.2301 -5.2874,-19.2587 17.2461,-22.248 20.7303,-2.7499 28.1307,-9.5922 30.6231,-28.3125 1.7607,-13.2253 1.0276,-16.3369 -5.4707,-23.254 -4.1263,-4.3922 -13.6604,-9.5382 -21.1875,-11.4335 -7.5271,-1.8952 -13.658,-4.351 -13.627,-5.459 0.1551,-5.3811 18.8422,-28.918 20.6445,-26.002 1.1354,1.837 7.5224,6.1242 14.1934,9.5274 20.6118,10.5156 15.1032,1.8436 34.8789,-12.961 12.5127,-10.5325 22.75,-21.2911 22.75,-23.9082 0,-2.6171 -2.8712,-10.388 -6.3809,-17.2676 -13.1502,-25.8957 2.6981,-18.8879 31.1075,-27.0644 6.427,-0.8628 10.498,-2.0264 13.0351,-2.166 z m 28.9537,86.1788 c -30.4625,-0.5338 -74.8328,22.5466 -71.5997,58.3225 4.4673,49.4336 28.2124,65.2968 60.3168,66.2159 24.1603,0.6916 81.5279,-21.1382 61.9251,-82.911 -8.878,-27.9767 -16.7395,-41.0334 -50.6422,-41.6274 z m -0.8924,13.7916 c 17.83,0.3269 28.6414,9.9221 34.8805,27.6072 4.2518,12.0521 13.6006,32.9941 -14.6164,54.4929 -9.4649,7.2114 -39.3025,24.9658 -63.0241,-3.4068 -30.8964,-36.9543 3.8733,-79.4061 42.76,-78.6933 z"
            transform="translate(-71.616826,-92.742158) matrix(0.26458333,0,0,0.26458333,-1506.8443,1225.3966) translate(-3214.0181,-5425.6289)"
            fill="#d0d1d3"/>
    </g>
    <rect style="stroke: #d0d1d3; fill: rgba(216, 216, 216, 0); stroke-width: 1;" x="-167.69" y="309.227"
          width="65" height="56.745" rx="9" ry="9" transform="matrix(-1, 0, 0, 1, 0, 0)"/>
  </g>
  <rect x="345.824" y="156.843" width="30" height="30"
        style="stroke: #d0d1d3; fill: none; stroke-width: 1; transform-origin: 360.824px 171.843px;"
        transform="matrix(0.707107, 0.707107, -0.707107, 0.707107, -295.716073, -31.879855)"/>
  <g transform="matrix(1, 0, 0, 1, -63.098512, -125.104937)">
    <g transform="matrix(0.150908, 0, 0, 0.160555, 107.721689, 314.137761)" style="">
      <path d="m 6138.6535,-4275.3867 -69.393,8.9171 12.165,44.7569 -35.657,33.6883 -31.596,-20.6695 -26.0141,42.1386 38.3229,17.5871 -2.0322,34.0315 -46.4415,18.843 21.4439,45.1093 35.1498,-18.6142 20.3029,26.6082 -22.7145,35.5162 28.0449,33.4594 38.2516,-43.0759 31.6666,20.8074 8.4075,31.9176 56.4352,-1.3118 -13.4503,-42.0255 41.1125,-23.7533 27.7899,30.1482 38.1944,-50.9321 -28.2965,-19.1863 8.6285,-47.279 35.0566,-5.1573 2.2492,-51.1428 -44.0313,5.5954 -17.512,-33.6883 12.6902,-32.6612 -44.7674,-35.5916 -24.6435,36.0479 -43.3976,-5.0247 z m 15.2333,97.4671 c 30.3656,4e-4 49.2029,23.8766 49.2029,56.1999 0,32.3234 -25.9799,53.1514 -56.3455,53.1518 -30.3658,0 -52.4385,-21.411 -52.4385,-53.7346 0,-32.3236 29.2153,-55.6171 59.5811,-55.6171 z"
            fill="#d0d1d3"
            transform="translate(-71.616826,-92.742158) matrix(0.26458333,0,0,0.26458333,-1506.8443,1225.3966)"/>
      <path d="m 9345.4043,1144.7578 c -2.0641,0.095 -4.3452,0.4058 -6.8672,0.9434 -23.6812,5.0478 -31.4813,6.6019 -55.2578,13.459 -16.3868,6.1253 -8.4288,12.6146 -3.5664,29.7382 4.0083,14.4452 10.3384,20.1765 -5.7637,30.586 -13.8957,10.5989 -10.6946,9.3429 -25.5215,-1.7559 -12.1856,-8.7508 -16.1121,-14.5149 -22.2168,-11.5137 -3.9491,1.9416 -9.2679,7.4884 -15.455,15.5254 -10.1057,13.1269 -28.5703,48.5511 -14.9493,49.2286 2.6323,0.1311 10.8877,2.1536 18.3457,4.4941 13.0797,4.1045 13.5586,4.7216 13.5586,17.4453 0,12.8052 -0.3953,13.3008 -13.5586,16.9297 -18.3519,5.059 -34.2968,15.4109 -34.2968,22.2637 0,7.4555 16.7866,42.7005 23.5566,49.4707 4.9904,4.9901 6.5259,4.6351 23.5918,-5.4551 12.6981,-7.5082 16.0914,-16.1006 25.1016,-2.293 9.294,11.5389 6.5606,8.9036 -2.961,21.2988 -5.3933,7.0404 -10.8215,13.9994 -12.0625,15.4649 -7.6078,7.8793 -7.2775,11.5645 0.7168,19.6035 7.0837,7.1233 9.8037,5.858 15.8848,13.8535 10.2762,8.1854 12.266,12.8803 22.3711,13.8242 10.5886,1.0098 12.4796,-4.2764 17.3848,-12.1484 10.4936,-16.8265 14.6617,-20.5109 19.1015,-16.8262 2.2536,1.8704 8.1362,4.4794 13.0742,5.7969 7.6628,2.0449 14.6247,1.2992 11.002,16.5293 -1.7567,12.0327 -3.1998,19.1691 5.1113,20.0918 24.3819,2.7067 36.1197,6.4454 59.0684,-3.5918 17.6149,-7.9379 16.6017,-7.0159 8.7754,-27.8867 -4.7958,-14.0253 -12.3978,-23.4784 6.3144,-31.3008 16.3513,-7.5357 14.056,-5.0904 28.918,7.1797 9.0134,7.1246 18.1071,12.9531 20.209,12.9531 8.232,0 46.7098,-46.3797 46.6328,-56.2109 -0.018,-2.3204 -9.8995,-10.1421 -26.0195,-20.5957 -1.5975,-1.0359 -1.2038,-8.8354 0.9082,-17.9844 l 3.7285,-16.1543 15.3828,-1.4785 c 23.786,-2.2855 26.28,-5.8437 24.3047,-34.6621 -0.9194,-13.4148 -3.4038,-27.6275 -5.5215,-31.584 -3.5569,-6.646 -5.3438,-7.0417 -23.4609,-5.1875 -19.5394,1.9998 -19.6429,1.9668 -28.5918,-9.2539 -7.9976,-10.0277 -10.9649,-11.0507 -1.0176,-20.7266 12.5177,-14.8764 13.367,-21.4814 3.8906,-30.2636 -14.7697,-13.8647 -17.6726,-27.101 -48.5723,-30.2833 -11.8247,0 -13.0955,0.93 -19.6191,14.3575 -6.864,14.1276 -7.2264,14.3574 -22.6895,14.3574 -15.4686,0 -15.9485,3.6689 -17.8203,-12.4688 -2.7932,-16.5331 -6.6959,-26.4307 -21.1445,-25.7656 z m -3.3594,12.1934 c 4.2285,-0.2327 4.1964,2.3791 3.7149,13.9648 0,21.146 3.7271,23.8762 36.0429,26.418 24.4197,1.9208 26.5941,9.5271 34.9317,-14.043 3.7764,-8.9384 7.8285,-16.2519 9.0058,-16.2519 2.5853,0 34.8789,25.4655 34.8789,27.5039 0,0.7899 -2.0036,4.6153 -4.4531,8.5019 -8.742,13.8718 -8.7186,19.9337 0.1328,32.8692 4.6982,6.8659 9.4384,16.7902 10.5332,22.0547 2.5532,12.2754 12.4069,13.7658 34.793,5.2597 22.5308,-8.561 15.9603,-7.8288 16.4238,16.1485 v 22.3886 l -13.8398,-2.0761 c -19.4743,-2.9203 -30.4359,1.8398 -30.3067,13.1582 0.056,4.9125 -2.1931,15.2142 -4.9961,22.8925 -7.4883,20.5124 -6.59,23.6436 9.2618,32.3028 17.2757,9.4723 16.5156,7.4498 2.4824,25.6425 -12.8369,17.1944 -8.9179,19.995 -24.2949,3.1075 -6.832,-7.039 -14.3698,-12.7989 -16.75,-12.7989 -7.0364,0 -37.2661,14.7583 -47.2246,23.0547 -8.8755,7.3943 -9.069,8.1398 -5.2286,20.2285 2.1929,6.9032 6.095,15.9074 8.6719,20.0079 8.7104,14.1637 -10.3432,10.5257 -21.3027,12.7382 l -21.9434,1.2403 0.5801,-19.6524 c 0.6358,-21.577 3.8525,-19.463 -17.8516,-25.9394 -12.1836,-4.1562 -11.4254,-4.4426 -22.8027,-7.1348 -9.8202,-4.2125 -18.3695,-1.9861 -30.6172,24.8848 -8.0574,18.6446 -4.9695,12.3362 -18.7539,-1.377 -14.5922,-15.6273 -16.6249,-11.7061 -0.3965,-27.2402 7.0574,-7.1912 12.8321,-14.7045 12.8321,-16.6973 0,-1.9925 -5.0242,-10.2078 -11.1661,-18.2539 -6.1418,-8.0461 -11.1679,-16.0514 -11.1679,-17.791 0,-6.0636 -16.1811,-3.103 -28.8477,5.2793 -7.0172,4.6436 -13.2387,7.8751 -13.8262,7.1797 -0.5876,-0.6955 -3.4353,-8.3549 -6.3281,-17.0215 -6.0849,-18.2301 -5.2874,-19.2587 17.2461,-22.248 20.7303,-2.7499 28.1307,-9.5922 30.6231,-28.3125 1.7607,-13.2253 1.0276,-16.3369 -5.4707,-23.254 -4.1263,-4.3922 -13.6604,-9.5382 -21.1875,-11.4335 -7.5271,-1.8952 -13.658,-4.351 -13.627,-5.459 0.1551,-5.3811 18.8422,-28.918 20.6445,-26.002 1.1354,1.837 7.5224,6.1242 14.1934,9.5274 20.6118,10.5156 15.1032,1.8436 34.8789,-12.961 12.5127,-10.5325 22.75,-21.2911 22.75,-23.9082 0,-2.6171 -2.8712,-10.388 -6.3809,-17.2676 -13.1502,-25.8957 2.6981,-18.8879 31.1075,-27.0644 6.427,-0.8628 10.498,-2.0264 13.0351,-2.166 z m 28.9537,86.1788 c -30.4625,-0.5338 -74.8328,22.5466 -71.5997,58.3225 4.4673,49.4336 28.2124,65.2968 60.3168,66.2159 24.1603,0.6916 81.5279,-21.1382 61.9251,-82.911 -8.878,-27.9767 -16.7395,-41.0334 -50.6422,-41.6274 z m -0.8924,13.7916 c 17.83,0.3269 28.6414,9.9221 34.8805,27.6072 4.2518,12.0521 13.6006,32.9941 -14.6164,54.4929 -9.4649,7.2114 -39.3025,24.9658 -63.0241,-3.4068 -30.8964,-36.9543 3.8733,-79.4061 42.76,-78.6933 z"
            transform="translate(-71.616826,-92.742158) matrix(0.26458333,0,0,0.26458333,-1506.8443,1225.3966) translate(-3214.0181,-5425.6289)"
            fill="#d0d1d3"/>
    </g>
    <rect style="stroke: #d0d1d3; fill: rgba(216, 216, 216, 0); stroke-width: 1;" x="-167.69" y="309.227"
          width="65" height="56.745" rx="9" ry="9" transform="matrix(-1, 0, 0, 1, 0, 0)"/>
  </g>
  <g transform="matrix(1, 0, 0, 1, 118.483042, 144.229586)">
    <rect style="stroke: #d0d1d3; fill: rgba(216, 216, 216, 0); stroke-width: 1;" x="-171.84" y="36.968" width="65"
          height="56.745" rx="9" ry="9" transform="matrix(-1, 0, 0, 1, 0, 0)"/>
    <g transform="matrix(0.2331, 0, 0, 0.243797, 113.594866, 42.54958)" style="">
      <path d="m 11063.227,-979.64667 h 136.841 c 13.642,0 24.624,10.98209 24.624,24.62351 v 86.34805 c 0,13.64142 -10.982,24.6235 -24.624,24.6235 h -136.841 c -13.641,0 -24.623,-10.98208 -24.623,-24.6235 v -86.34805 c 0,-13.64142 10.982,-24.62351 24.623,-24.62351 z"
            color="#000" overflow="visible" fill="#d0d1d3" paint-order="fill markers stroke"
            transform="translate(-72.618376,24.502414) matrix(0.26458333,0,0,0.26458333,-2844.9648,236.71805)"/>
      <path d="m 11028.456,-846.10527 c -0.171,-14.1195 -2.084,-26.8793 -1.08,-40.5521 0.421,-24.6211 -1.947,-59.2243 2.811,-88.8358 2.048,-12.7845 20.13,-11.3405 96.455,-11.7119 83.874,-0.4078 92.182,0.3441 102.35,9.2718 5.791,5.084 7.997,9.2135 8.879,16.6154 -0.194,45.349 -0.119,75.2241 -3.393,112.6505 -0.868,22.1447 -57.142,14.8349 -88.027,15.0103 -100.705,0.5726 -119.535,6.7474 -117.995,-12.4482 z m 184.05,-12.008 c 8.726,-32.5957 2.758,-69.426 7.439,-98.5479 -0.484,-0.4844 -3.768,1.7959 -7.296,5.0657 -23.42,20.9267 -32.14,32.1516 -55.76,46.5775 -5.118,3.1348 -11.694,5.7449 -14.612,5.8008 -34.24,-7.65 -71.93,-47.8852 -94.749,-67.8586 1.039,26.23 -1.113,50.3433 -2.223,72.1348 -1.877,36.8757 -0.578,42.9934 14.175,42.0597 45.469,0.6597 149.922,6.3656 153.026,-5.232 z m -56.229,-66.4457 c 12.957,-8.2174 50.864,-44.4348 49.246,-47.0515 -0.631,-1.0207 -27.013,-1.8479 -58.627,-1.8401 -23.602,1.696 -47.818,-1.9894 -71.298,-0.4389 -5.394,0.3818 -6.615,-0.8726 25.515,26.2404 23.32,19.6774 37.589,29.9193 41.685,29.9193 1.491,0 7.556,-3.0737 13.479,-6.8292 z"
            fill="#d0d1d3"
            transform="translate(-72.618376,24.502414) matrix(0.26458333,0,0,0.26458333,-2844.9648,236.71805)"/>
    </g>
  </g>
  <rect style="stroke: #d0d1d3; fill: rgba(216, 216, 216, 0); stroke-width: 1;" x="-196.52" y="182.368" width="65"
        height="56.745" rx="9" ry="9" transform="matrix(-1, 0, 0, 1, 0, 0)"/>
  <path d="M -0.897 -32.451 L 2.785 -25.37 L -4.58 -25.37 L -0.897 -32.451 Z"
        bx:shape="triangle -4.58 -32.451 7.365 7.081 0.5 0 1@42b7a306"
        style="stroke: #d0d1d3; stroke-width: 1; transform-origin: -0.898px -28.911px;  fill: #d0d1d3;"
        transform="matrix(0.009571, 0.999954, -0.999856, 0.019855, 101.649716, 95.785723)"/>
  <g>
    <path d="M -0.897 -32.451 L 2.785 -25.37 L -4.58 -25.37 L -0.897 -32.451 Z"
          bx:shape="triangle -4.58 -32.451 7.365 7.081 0.5 0 1"
          style="stroke: #d0d1d3; stroke-width: 1; transform-origin: -0.898px -28.911px; fill: #d0d1d3;"
          transform="matrix(0.009571, 0.999954, -0.999856, 0.019855, 196.459005, 95.540506)"/>
    
    <path style="fill: #d0d1d3; stroke: #d0d1d3; stroke-width: 1; transform-origin: 168.029px 22.716px;"
          d="M 177.816 66.951 L 191.988 66.951"/>
  </g>
  
  <path style="fill: rgb(216, 216, 216); stroke: #d0d1d3; stroke-width: 1; transform-origin: 67.704px 22.715px;"
        d="M 80.722 66.95 L 99.573 66.95"/>
  <g transform="matrix(1, 0, 0, 1, 90.516199, -1.264183)">
    <path d="M -0.897 -32.451 L 2.785 -25.37 L -4.58 -25.37 L -0.897 -32.451 Z"
          bx:shape="triangle -4.58 -32.451 7.365 7.081 0.5 0 1@42b7a306"
          style="stroke: #d0d1d3; stroke-width: 1; transform-origin: -0.898px -28.911px;  fill: #d0d1d3;"
          transform="matrix(0.009571, 0.999954, -0.999856, 0.019855, 196.459005, 95.540506)"/>
    <path style="fill: rgb(216, 216, 216); stroke: #d0d1d3; stroke-width: 1; transform-origin: 168.029px 22.716px;"
          d="M 177.816 66.951 L 191.988 66.951"/>
  </g>
  <g transform="matrix(1, 0, 0, 1, 182.665072, -1.585041)">
    <path d="M -0.897 -32.451 L 2.785 -25.37 L -4.58 -25.37 L -0.897 -32.451 Z"
          bx:shape="triangle -4.58 -32.451 7.365 7.081 0.5 0 1@42b7a306"
          style="stroke: #d0d1d3; stroke-width: 1; transform-origin: -0.898px -28.911px;  fill: #d0d1d3;"
          transform="matrix(0.009571, 0.999954, -0.999856, 0.019855, 196.459005, 95.540506)"/>
    <path style="fill: rgb(216, 216, 216); stroke: #d0d1d3; stroke-width: 1; transform-origin: 168.029px 22.716px;"
          d="M 177.816 66.951 L 191.988 66.951"/>
  </g>
  <g transform="matrix(-1, 0, 0, -1, 190.456866, 70.035829)" style="transform-origin: 188.476px 66.63px;">
    <path d="M -0.897 -32.451 L 2.785 -25.37 L -4.58 -25.37 L -0.897 -32.451 Z"
          bx:shape="triangle -4.58 -32.451 7.365 7.081 0.5 0 1@42b7a306"
          style="stroke: #d0d1d3; stroke-width: 1; transform-origin: -0.898px -28.911px;  fill: #d0d1d3;"
          transform="matrix(0.009571, 0.999954, -0.999856, 0.019855, 196.459005, 95.540506)"/>
    <path style="fill: rgb(216, 216, 216); stroke: #d0d1d3; stroke-width: 1; transform-origin: 168.029px 22.716px;"
          d="M 177.816 66.951 L 191.988 66.951"/>
  </g>
  <g transform="matrix(-1, 0, 0, -1, 93.345399, 70.469621)" style="transform-origin: 188.476px 66.63px;">
    <path d="M -0.897 -32.451 L 2.785 -25.37 L -4.58 -25.37 L -0.897 -32.451 Z"
          bx:shape="triangle -4.58 -32.451 7.365 7.081 0.5 0 1@42b7a306"
          style="stroke: #d0d1d3; stroke-width: 1; transform-origin: -0.898px -28.911px;  fill: #d0d1d3;"
          transform="matrix(0.009571, 0.999954, -0.999856, 0.019855, 196.459005, 95.540506)"/>
    <path style="fill: rgb(216, 216, 216); stroke: #d0d1d3; stroke-width: 1; transform-origin: 168.029px 22.716px;"
          d="M 177.816 66.951 L 191.988 66.951"/>
  </g>
  <g transform="matrix(-1, 0, 0, -1, -0.238762, 70.11062)" style="transform-origin: 188.476px 66.63px;">
    <path d="M -0.897 -32.451 L 2.785 -25.37 L -4.58 -25.37 L -0.897 -32.451 Z"
          bx:shape="triangle -4.58 -32.451 7.365 7.081 0.5 0 1@42b7a306"
          style="stroke: #d0d1d3; stroke-width: 1; transform-origin: -0.898px -28.911px;  fill: #d0d1d3;"
          transform="matrix(0.009571, 0.999954, -0.999856, 0.019855, 196.459005, 95.540506)"/>
    <path style="fill: rgb(216, 216, 216); stroke: #d0d1d3; stroke-width: 1; transform-origin: 168.029px 22.716px;"
          d="M 177.816 66.951 L 191.988 66.951"/>
  </g>
  <g transform="matrix(-1, 0, 0, -1, -90.309884, 73.50776)" style="transform-origin: 188.476px 66.63px;">
    <path d="M -0.897 -32.451 L 2.785 -25.37 L -4.58 -25.37 L -0.897 -32.451 Z"
          bx:shape="triangle -4.58 -32.451 7.365 7.081 0.5 0 1@42b7a306"
          style="stroke: #d0d1d3; stroke-width: 1; transform-origin: -0.898px -28.911px;  fill: #d0d1d3;"
          transform="matrix(0.009571, 0.999954, -0.999856, 0.019855, 196.459005, 95.540506)"/>
    <path style="fill: rgb(216, 216, 216); stroke: #d0d1d3; stroke-width: 1; transform-origin: 168.029px 22.716px;"
          d="M 177.816 66.951 L 191.988 66.951"/>
  </g>
  <g transform="matrix(1, 0, 0, 1, -70.177972, 144.10985)">
    <path d="M -0.897 -32.451 L 2.785 -25.37 L -4.58 -25.37 L -0.897 -32.451 Z"
          bx:shape="triangle -4.58 -32.451 7.365 7.081 0.5 0 1@42b7a306"
          style="stroke: #d0d1d3; stroke-width: 1; transform-origin: -0.898px -28.911px;  fill: #d0d1d3;"
          transform="matrix(0.009571, 0.999954, -0.999856, 0.019855, 196.459005, 95.540506)"/>
    <path style="fill: rgb(216, 216, 216); stroke: #d0d1d3; stroke-width: 1; transform-origin: 168.029px 22.716px;"
          d="M 177.816 66.951 L 191.988 66.951"/>
  </g>
  <g transform="matrix(1, 0, 0, 1, 23.32919, 142.940066)">
    <path d="M -0.897 -32.451 L 2.785 -25.37 L -4.58 -25.37 L -0.897 -32.451 Z"
          bx:shape="triangle -4.58 -32.451 7.365 7.081 0.5 0 1@42b7a306"
          style="stroke: #d0d1d3; stroke-width: 1; transform-origin: -0.898px -28.911px;  fill: #d0d1d3;"
          transform="matrix(0.009571, 0.999954, -0.999856, 0.019855, 196.459005, 95.540506)"/>
    <path style="fill: rgb(216, 216, 216); stroke: #d0d1d3; stroke-width: 1; transform-origin: 168.029px 22.716px;"
          d="M 177.816 66.951 L 191.988 66.951"/>
  </g>
  <g transform="matrix(1, 0, 0, 1, 114.647844, 143.449419)">
    <path d="M -0.897 -32.451 L 2.785 -25.37 L -4.58 -25.37 L -0.897 -32.451 Z"
          bx:shape="triangle -4.58 -32.451 7.365 7.081 0.5 0 1@42b7a306"
          style="stroke: #d0d1d3; stroke-width: 1; transform-origin: -0.898px -28.911px;  fill: #d0d1d3;"
          transform="matrix(0.009571, 0.999954, -0.999856, 0.019855, 196.459005, 95.540506)"/>
    <path style="fill: rgb(216, 216, 216); stroke: #d0d1d3; stroke-width: 1; transform-origin: 168.029px 22.716px;"
          d="M 177.816 66.951 L 191.988 66.951"/>
  </g>
  <g transform="matrix(1, 0, 0, 1, 0, 1)">
    <path d="M -0.897 -32.451 L 2.785 -25.37 L -4.58 -25.37 L -0.897 -32.451 Z"
          bx:shape="triangle -4.58 -32.451 7.365 7.081 0.5 0 1@42b7a306"
          style="stroke: #d0d1d3; stroke-width: 1; transform-origin: -0.898px -28.911px;  fill: #d0d1d3;"
          transform="matrix(-0.999954, 0.009571, -0.019855, -0.999856, 418.170364, 136.304548)"/>
    <path style="fill: rgb(216, 216, 216); stroke: #d0d1d3; stroke-width: 1; transform-origin: 169.029px 55.806px;"
          d="M 416.951 95.082 L 416.951 102.82"/>
  </g>
  <g transform="matrix(1, 0, 0, 1, -352.519231, 68.583085)">
    <path d="M -0.897 -32.451 L 2.785 -25.37 L -4.58 -25.37 L -0.897 -32.451 Z"
          bx:shape="triangle -4.58 -32.451 7.365 7.081 0.5 0 1@42b7a306"
          style="stroke: #d0d1d3; stroke-width: 1; transform-origin: -0.898px -28.911px;  fill: #d0d1d3;"
          transform="matrix(-0.999954, 0.009571, -0.019855, -0.999856, 418.170364, 136.304548)"/>
    <path style="fill: rgb(216, 216, 216); stroke: #d0d1d3; stroke-width: 1; transform-origin: 169.029px 55.806px;"
          d="M 416.951 95.082 L 416.951 102.82"/>
  </g>
  
  <g transform="matrix(0.707107, 0.707107, -0.707107, 0.707107, -352.580663, 4.001141)"
     style="transform-origin: 417.993px 135.516px;">
    <path style="fill: rgb(216, 216, 216); stroke: #d0d1d3; stroke-miterlimit: 4.2; stroke-width: 3px; transform-origin: 395.55px 90.992px;"
          d="M 408.568 135.227 L 427.418 135.227"/>
    <path style="fill: rgb(216, 216, 216); stroke: #d0d1d3; stroke-miterlimit: 4.2; stroke-width: 3; transform-origin: 461.921px 113.074px;"
          d="M 417.687 126.091 L 417.687 144.941"/>
  </g>
</svg>